<svg xmlns="http://www.w3.org/2000/svg" width="920" height="380" viewBox="0 0 920 380" font-family="Helvetica,Arial,sans-serif">
<rect width="920" height="380" fill="#ffffff"/>
<text x="24" y="34" font-size="18" font-weight="600" fill="#111">Branch outcome composition on initially defective inputs</text>
<text x="24" y="56" font-size="12" fill="#555">Question-level aggregates: repeats averaged, then PARTIAL, EMPTY and INCONSISTENT weighted one third each (60 questions)</text>
<text x="134" y="116" font-size="13" text-anchor="end" fill="#111">Branch A</text>
<rect x="150.0" y="92" width="60.8" height="38" fill="#2f6f4e"/>
<text x="180.4" y="116" font-size="12" fill="#fff" text-anchor="middle">9.8</text>
<rect x="210.8" y="92" width="113.6" height="38" fill="#a3403c"/>
<text x="267.6" y="116" font-size="12" fill="#fff" text-anchor="middle">18.3</text>
<rect x="324.5" y="92" width="445.5" height="38" fill="#41618c"/>
<text x="547.2" y="116" font-size="12" fill="#fff" text-anchor="middle">71.8</text>
<text x="134" y="178" font-size="13" text-anchor="end" fill="#111">Branch B</text>
<rect x="150.0" y="154" width="16.1" height="38" fill="#2f6f4e"/>
<rect x="166.1" y="154" width="47.1" height="38" fill="#a3403c"/>
<text x="189.6" y="178" font-size="12" fill="#fff" text-anchor="middle">7.6</text>
<rect x="213.1" y="154" width="556.8" height="38" fill="#41618c"/>
<text x="491.5" y="178" font-size="12" fill="#fff" text-anchor="middle">89.8</text>
<text x="134" y="240" font-size="13" text-anchor="end" fill="#111">Branch C</text>
<rect x="150.0" y="216" width="210.1" height="38" fill="#2f6f4e"/>
<text x="255.1" y="240" font-size="12" fill="#fff" text-anchor="middle">33.9</text>
<rect x="360.1" y="216" width="137.8" height="38" fill="#a3403c"/>
<text x="429.0" y="240" font-size="12" fill="#fff" text-anchor="middle">22.2</text>
<rect x="497.9" y="216" width="272.1" height="38" fill="#41618c"/>
<text x="633.9" y="240" font-size="12" fill="#fff" text-anchor="middle">43.9</text>
<text x="134" y="302" font-size="13" text-anchor="end" fill="#111">Branch D</text>
<rect x="150.0" y="278" width="87.2" height="38" fill="#2f6f4e"/>
<text x="193.6" y="302" font-size="12" fill="#fff" text-anchor="middle">14.1</text>
<rect x="237.2" y="278" width="63.2" height="38" fill="#a3403c"/>
<text x="268.8" y="302" font-size="12" fill="#fff" text-anchor="middle">10.2</text>
<rect x="300.4" y="278" width="469.6" height="38" fill="#41618c"/>
<text x="535.2" y="302" font-size="12" fill="#fff" text-anchor="middle">75.7</text>
<rect x="150" y="344" width="12" height="12" fill="#2f6f4e"/>
<text x="168" y="355" font-size="12" fill="#333">fully supported answer</text>
<rect x="480" y="344" width="12" height="12" fill="#a3403c"/>
<text x="498" y="355" font-size="12" fill="#333">not fully supported answer</text>
<rect x="150" y="366" width="12" height="12" fill="#b08a2e"/>
<text x="168" y="377" font-size="12" fill="#333">unclear answer</text>
<rect x="480" y="366" width="12" height="12" fill="#41618c"/>
<text x="498" y="377" font-size="12" fill="#333">abstention or escalation</text>
<text x="24" y="368" font-size="11" fill="#777">Percentages of completed runs within each cell. Technical failures are excluded here and reported separately.</text>
</svg>